<!-- Generated by IcoMoon.io -->
<svg version="1.1" xmlns="http://www.w3.org/2000/svg" width="1046" height="1024" viewBox="0 0 1046 1024">
<title></title>
<g id="icomoon-ignore">
</g>
<path d="M544.712 122.828h-456.919l45.031 155.627h411.884c42.944 0 77.843 34.927 77.843 77.843v77.843h-389.069c-128.752 0-233.494 104.746-233.494 233.505 0 128.748 104.742 233.526 233.494 233.526h311.226c128.752 0 233.501-104.777 233.501-233.526v-311.355c0-128.717-104.746-233.463-233.501-233.463zM622.555 667.639c0 42.916-34.927 77.84-77.843 77.84h-311.226c-42.913 0-77.84-34.92-77.84-77.84 0-42.923 34.927-77.85 77.84-77.85h389.069v77.85z"></path>
<path d="M1000.933 434.165h-141.868v155.63h186.931z"></path>
</svg>
